<svg width="133" height="133" viewBox="0 0 133 133" fill="none" xmlns="http://www.w3.org/2000/svg">
<g clip-path="url(#clip0)">
<path d="M85.773 19.3529L74.6759 8.29413C70.0873 3.72134 62.6317 3.73423 58.0589 8.32285L47.0001 19.42C42.4273 24.0086 42.4402 31.4641 47.0288 36.0369L58.1259 47.0957C62.7145 51.6685 70.1701 51.6556 74.7429 47.067L85.8017 35.9699C90.3745 31.3813 90.3617 23.9258 85.773 19.3529Z" fill="white"/>
<path d="M124.613 58.059L113.516 47.0002C108.927 42.4274 101.472 42.4403 96.8989 47.0289L85.8401 58.126C81.2673 62.7146 81.2802 70.1702 85.8688 74.743L96.9659 85.8018C101.555 90.3746 109.01 90.3617 113.583 85.7731L124.642 74.676C129.214 70.0873 129.202 62.6318 124.613 58.059Z" fill="white"/>
<path d="M47.067 58.1928L35.9699 47.134C31.3813 42.5612 23.9258 42.5741 19.353 47.1627L8.29417 58.2598C3.72138 62.8484 3.73427 70.304 8.32289 74.8768L19.42 85.9356C24.0086 90.5084 31.4642 90.4955 36.037 85.9068L47.0958 74.8098C51.6687 70.221 51.6558 62.7657 47.067 58.1928Z" fill="white"/>
<path d="M80.3968 113.525L72.074 105.231L80.3681 96.9084C81.8942 95.377 81.8927 92.8983 80.3585 91.3695C78.8243 89.8405 76.3456 89.8475 74.8195 91.3789L66.5254 99.7018L58.2025 91.4077C56.6684 89.8788 54.1897 89.8858 52.6636 91.4172C51.1375 92.9486 51.139 95.4273 52.6732 96.9561L60.996 105.25L52.7019 113.573C51.1758 115.105 51.1773 117.583 52.7115 119.112C54.2456 120.641 56.7243 120.634 58.2504 119.102L66.5445 110.78L74.8674 119.074C76.4015 120.603 78.8802 120.596 80.4063 119.064C81.9324 117.533 81.931 115.054 80.3968 113.525Z" fill="white"/>
</g>
<defs>
<clipPath id="clip0">
<rect width="94" height="94" fill="white" transform="translate(66.353) rotate(44.901)"/>
</clipPath>
</defs>
</svg>
