<svg width="90" height="90" viewBox="0 0 90 90" fill="none" xmlns="http://www.w3.org/2000/svg">
<path d="M78.75 26.25H71.25V11.25C71.25 7.10625 67.8938 3.75 63.75 3.75H26.25C22.1062 3.75 18.75 7.10625 18.75 11.25V18.75H11.25C7.10625 18.75 3.75 22.1062 3.75 26.25V41.25C3.75 45.3938 7.10625 48.75 11.25 48.75H18.75V78.75C18.75 82.8938 22.1062 86.25 26.25 86.25H63.75C67.8938 86.25 71.25 82.8938 71.25 78.75V71.25H78.75C82.8938 71.25 86.25 67.8938 86.25 63.75V33.75C86.25 29.6062 82.8938 26.25 78.75 26.25ZM63.75 78.75H26.25V48.75H33.75C37.8938 48.75 41.25 45.3938 41.25 41.25V26.25C41.25 22.1062 37.8938 18.75 33.75 18.75H26.25V11.25H63.75V26.25H56.25C52.1062 26.25 48.75 29.6062 48.75 33.75V63.75C48.75 67.8938 52.1062 71.25 56.25 71.25H63.75V78.75ZM78.75 63.75H56.25V33.75H78.75V63.75Z" fill="white"/>
</svg>
