<svg xmlns="http://www.w3.org/2000/svg" width="30" height="32" viewBox="0 0 30 32"><g class="nc-icon-wrapper" fill="#333333"><path d="M20.77 15q0-3.336-2.372-5.706t-5.706-2.371-5.706 2.37T4.616 15t2.37 5.706 5.706 2.37 5.706-2.37T20.77 15zM30 30q0 .937-.685 1.622t-1.623.685q-.973 0-1.622-.685l-6.184-6.166q-3.227 2.236-7.194 2.236-2.578 0-4.93-1t-4.057-2.705T1 19.931 0 15t1-4.931 2.705-4.057T7.76 3.308t4.931-1 4.931 1 4.057 2.704 2.704 4.057 1 4.93q0 3.967-2.235 7.194l6.184 6.184Q30 29.044 30 30z" fill="#333333"/></g></svg>