<svg width="110" height="104" viewBox="0 0 110 104" fill="none" xmlns="http://www.w3.org/2000/svg">
<path d="M86.6914 0.731445C91.0996 0.731445 95.0313 5.20875 95.0313 11.223C95.0313 17.2586 91.0996 21.7145 86.6914 21.7145C82.2832 21.7145 78.3516 17.2586 78.3516 11.223C78.3516 5.20875 82.2832 0.731445 86.6914 0.731445ZM55.0239 0.731445C59.4082 0.731445 63.3637 5.20875 63.3637 11.223C63.3637 17.2586 59.4082 21.7145 55.0239 21.7145C50.6157 21.7145 46.6602 17.2586 46.6602 11.223C46.6602 5.20875 50.6157 0.731445 55.0239 0.731445ZM23.3325 0.731445C27.7407 0.731445 31.6723 5.20875 31.6723 11.223C31.6723 17.2586 27.7407 21.7145 23.3325 21.7145C18.9243 21.7145 14.9712 17.2586 14.9712 11.223C14.9712 5.20875 18.9243 0.731445 23.3325 0.731445ZM55.0239 26.7184C70.2739 27.195 83.1411 27.195 98.5817 27.7192C105.945 31.9606 109.352 53.6918 109.138 61.2454L104.944 65.4629C103.109 55.2645 100.798 41.6586 96.9614 38.6325V59.5059L97.9383 103.278H92.6485L88.6692 59.2676H84.3801L80.4008 103.278H75.0871L76.0879 59.5059L74.1817 38.418H67.2L65.4844 59.4344L66.4852 103.207H61.1715L57.1684 59.1961H52.8793L48.8762 103.207H43.5864L44.5871 59.4344L42.8477 38.418H35.8661L33.9598 59.5059L34.9606 103.278H29.6469L25.6676 59.2676H21.3786L17.354 103.278H12.0641L13.0649 59.5059V38.6325C9.20477 41.6586 6.89344 55.2645 5.05867 65.4629L0.864923 61.2454C0.65047 53.6918 4.08172 31.9606 11.4208 27.7192C26.9067 27.195 39.7739 27.195 55.0239 26.7184V26.7184Z" fill="white"/>
</svg>
